<svg x="0" y="0" width="60" height="55.796306284523965" xmlns="http://www.w3.org/2000/svg"
     viewBox="0 0 99.91000366210938 92.90999603271484">
    <path d="M19.24 59.65a167.12 167.12 0 0 1 9.31 33.21c2.83-.24 5.69-.44 8.57-.58a175.39 175.39 0 0 0-9.69-35.23 172.9 172.9 0 0 0-20.14-38Q3.74 21.24 0 23.31a165 165 0 0 1 19.24 36.34zM45.17 92h8.74a166.73 166.73 0 0 0-10.37-40c-6.4-16.47-14.41-30.79-22.88-41.69-2.22 1.61-4.53 3.19-6.92 4.76 7.61 9.81 15.26 23.2 21.61 39.47A160.11 160.11 0 0 1 45.17 92zM61.8 92.27c3 .15 5.89.34 8.77.59-.89-13.81-4.63-29.83-10.92-46C52.28 27.89 42.79 11.76 32.91.47q-3 2.68-6.37 5.36c8.65 10.09 17.68 25 24.92 43.61 5.87 15.13 9.39 29.99 10.34 42.83z"
          fill="#147dc8"></path>
    <path d="M37.84 92.24c.95-12.83 4.46-27.68 10.34-42.8 7.35-18.91 16.53-34 25.3-44.06C71.24 3.6 69.14 1.8 67.15 0 57.12 11.31 47.46 27.62 40 46.85 33.71 63 30 79 29.07 92.81q4.37-.36 8.77-.57zM45.71 92h8.75a160.31 160.31 0 0 1 9.82-37.48c6.41-16.5 14.22-30 21.93-39.93-2.37-1.57-4.68-3.16-6.89-4.77C70.72 20.78 62.58 35.26 56.09 52a167.13 167.13 0 0 0-10.38 40zM62.51 92.31q4.35.22 8.57.6a166.84 166.84 0 0 1 9.31-33.26 165 165 0 0 1 19.52-36.72c-2.49-1.39-4.91-2.8-7.28-4.24A172.73 172.73 0 0 0 72.2 57.05a175 175 0 0 0-9.69 35.26z"
          fill="#143d8f"></path>
</svg>

